<?xml version="1.0" encoding="UTF-8" standalone="no"?>
<svg
   height="96.311996"
   viewBox="0 0 96.311996 96.311996"
   width="96.311996"
   version="1.1"
   id="svg212"
   sodipodi:docname="com.github.geigi.cozy.svg"
   inkscape:version="1.2.1 (9c6d41e410, 2022-07-14)"
   xmlns:inkscape="http://www.inkscape.org/namespaces/inkscape"
   xmlns:sodipodi="http://sodipodi.sourceforge.net/DTD/sodipodi-0.dtd"
   xmlns:xlink="http://www.w3.org/1999/xlink"
   xmlns="http://www.w3.org/2000/svg"
   xmlns:svg="http://www.w3.org/2000/svg">
  <defs
     id="defs216">
    <radialGradient
       inkscape:collect="always"
       xlink:href="#o"
       id="radialGradient3363"
       gradientUnits="userSpaceOnUse"
       gradientTransform="matrix(37.758633,0,0,19.739206,-7375.666,-1304.0032)"
       cx="197.74678"
       cy="69.253197"
       r="2.5002501" />
    <radialGradient
       inkscape:collect="always"
       xlink:href="#o"
       id="radialGradient3365"
       gradientUnits="userSpaceOnUse"
       gradientTransform="matrix(37.758633,0,0,19.739206,-7375.666,-1304.0032)"
       cx="197.74678"
       cy="69.253197"
       r="2.5002501" />
  </defs>
  <sodipodi:namedview
     id="namedview214"
     pagecolor="#ffffff"
     bordercolor="#000000"
     borderopacity="0.25"
     inkscape:showpageshadow="2"
     inkscape:pageopacity="0.0"
     inkscape:pagecheckerboard="0"
     inkscape:deskcolor="#d1d1d1"
     showgrid="false"
     inkscape:zoom="4.5770372"
     inkscape:cx="44.679558"
     inkscape:cy="51.780221"
     inkscape:window-width="1920"
     inkscape:window-height="1131"
     inkscape:window-x="0"
     inkscape:window-y="0"
     inkscape:window-maximized="1"
     inkscape:current-layer="svg212" />
  <linearGradient
     id="a"
     gradientUnits="userSpaceOnUse">
    <stop
       offset="0"
       stop-color="#c0bfbc"
       id="stop2" />
    <stop
       offset="0.846154"
       stop-color="#c0bfbc"
       id="stop4" />
    <stop
       offset="0.923077"
       stop-color="#deddda"
       id="stop6" />
    <stop
       offset="1"
       stop-color="#c0bfbc"
       id="stop8" />
  </linearGradient>
  <linearGradient
     id="b"
     x1="64"
     x2="116"
     xlink:href="#a"
     y1="75"
     y2="75" />
  <linearGradient
     id="c"
     gradientUnits="userSpaceOnUse"
     x1="40"
     x2="40"
     y1="27.999992"
     y2="140.51651">
    <stop
       offset="0"
       stop-color="#edece9"
       id="stop12" />
    <stop
       offset="1"
       stop-color="#ffffff"
       id="stop14" />
  </linearGradient>
  <linearGradient
     id="d"
     gradientTransform="matrix(-1,0,0,1,128,-172)"
     x1="64"
     x2="116"
     xlink:href="#a"
     y1="247"
     y2="247" />
  <linearGradient
     id="e"
     gradientUnits="userSpaceOnUse">
    <stop
       offset="0"
       stop-color="#f6f5f4"
       id="stop18" />
    <stop
       offset="0.5"
       stop-color="#ffffff"
       id="stop20" />
    <stop
       offset="1"
       stop-color="#dddbd8"
       id="stop22" />
  </linearGradient>
  <linearGradient
     id="f"
     gradientTransform="matrix(-0.25,0,0,0.25,168,25)"
     x1="384"
     x2="448"
     xlink:href="#e"
     y1="120"
     y2="120" />
  <linearGradient
     id="g"
     x1="48"
     x2="64"
     xlink:href="#e"
     y1="55"
     y2="55" />
  <linearGradient
     id="h"
     gradientUnits="userSpaceOnUse"
     x1="29.999996"
     x2="97.999992"
     y1="29.999975"
     y2="29.999975"
     gradientTransform="translate(-15.886719,-4.089844)">
    <stop
       offset="0"
       stop-color="#c64600"
       id="stop27" />
    <stop
       offset="0.0574987"
       stop-color="#c64600"
       stop-opacity="0.988235"
       id="stop29" />
    <stop
       offset="0.102995"
       stop-color="#ff7f3a"
       stop-opacity="0.980392"
       id="stop31" />
    <stop
       offset="0.148718"
       stop-color="#c64600"
       stop-opacity="0.972549"
       id="stop33" />
    <stop
       offset="0.411765"
       stop-color="#872f00"
       stop-opacity="0.913725"
       id="stop35" />
    <stop
       offset="0.864825"
       stop-color="#c64600"
       stop-opacity="0.854902"
       id="stop37" />
    <stop
       offset="0.882353"
       stop-color="#ff7429"
       stop-opacity="0.85098"
       id="stop39" />
    <stop
       offset="0.920967"
       stop-color="#682a09"
       stop-opacity="0.847059"
       id="stop41" />
    <stop
       offset="1"
       stop-color="#c64600"
       stop-opacity="0.839684"
       id="stop43" />
  </linearGradient>
  <linearGradient
     id="i"
     gradientUnits="userSpaceOnUse">
    <stop
       offset="0"
       stop-color="#ffa348"
       id="stop46" />
    <stop
       offset="0.649243"
       stop-color="#e66100"
       id="stop48" />
    <stop
       offset="1"
       stop-color="#ffa348"
       id="stop50" />
  </linearGradient>
  <radialGradient
     id="j"
     cx="134.30902"
     cy="55.279427"
     gradientTransform="matrix(0.548623,0,0,0.519592,-57.644183,27.153234)"
     r="58.46003"
     xlink:href="#i" />
  <linearGradient
     id="k"
     gradientUnits="userSpaceOnUse">
    <stop
       offset="0"
       stop-color="#3d3846"
       id="stop54" />
    <stop
       offset="0.697269"
       stop-color="#9a9996"
       id="stop56" />
    <stop
       offset="1"
       stop-color="#77767b"
       id="stop58" />
  </linearGradient>
  <linearGradient
     id="l"
     x1="43.276226"
     x2="43.276226"
     xlink:href="#k"
     y1="80.068329"
     y2="47.874386"
     gradientTransform="translate(-15.886719,-4.089844)" />
  <filter
     id="m"
     height="1"
     width="1"
     x="0"
     y="0">
    <feColorMatrix
       in="SourceGraphic"
       type="matrix"
       values="0 0 0 0 1 0 0 0 0 1 0 0 0 0 1 0 0 0 1 0"
       id="feColorMatrix62" />
  </filter>
  <mask
     id="n">
    <g
       filter="url(#m)"
       id="g67">
      <rect
         fill-opacity="0.187"
         height="128"
         width="128"
         id="rect65"
         x="0"
         y="0" />
    </g>
  </mask>
  <radialGradient
     id="o"
     cx="197.74678"
     cy="69.253197"
     gradientTransform="matrix(37.758633,0,0,19.739206,-7375.666,-1304.0032)"
     gradientUnits="userSpaceOnUse"
     r="2.5002501">
    <stop
       offset="0"
       stop-color="#ffffff"
       stop-opacity="0.987395"
       id="stop70" />
    <stop
       offset="1"
       stop-color="#ffffff"
       stop-opacity="0"
       id="stop72" />
  </radialGradient>
  <clipPath
     id="p">
    <rect
       height="152"
       width="192"
       id="rect75"
       x="0"
       y="0" />
  </clipPath>
  <radialGradient
     id="q"
     cx="134.30902"
     cy="55.279427"
     gradientTransform="matrix(-0.548623,0,0,0.519592,153.95546,27.153232)"
     r="58.46003"
     xlink:href="#i" />
  <linearGradient
     id="r"
     gradientTransform="matrix(-0.217853,0,0,0.217853,109.713,-10.866014)"
     x1="187.24197"
     x2="187.24197"
     xlink:href="#k"
     y1="398.63806"
     y2="250.85977" />
  <mask
     id="s">
    <g
       filter="url(#m)"
       id="g82">
      <rect
         fill-opacity="0.187"
         height="128"
         width="128"
         id="rect80"
         x="0"
         y="0" />
    </g>
  </mask>
  <clipPath
     id="t">
    <rect
       height="152"
       width="192"
       id="rect85"
       x="0"
       y="0" />
  </clipPath>
  <mask
     id="u">
    <g
       filter="url(#m)"
       id="g90">
      <rect
         fill-opacity="0.1"
         height="128"
         width="128"
         id="rect88"
         x="0"
         y="0" />
    </g>
  </mask>
  <clipPath
     id="v">
    <rect
       height="152"
       width="192"
       id="rect93"
       x="0"
       y="0" />
  </clipPath>
  <radialGradient
     id="w"
     cx="95.944328"
     cy="80.954079"
     gradientUnits="userSpaceOnUse"
     r="5.0317378">
    <stop
       offset="0"
       stop-color="#c64600"
       id="stop96" />
    <stop
       offset="1"
       stop-color="#c64600"
       stop-opacity="0"
       id="stop98" />
  </radialGradient>
  <linearGradient
     id="x"
     gradientUnits="userSpaceOnUse"
     x1="45.999973"
     x2="57.999973"
     y1="98.000038"
     y2="98.000038">
    <stop
       offset="0"
       stop-color="#c0bfbc"
       id="stop101" />
    <stop
       offset="0.244984"
       stop-color="#e1e0df"
       id="stop103" />
    <stop
       offset="0.85872"
       stop-color="#82807a"
       id="stop105" />
    <stop
       offset="1"
       stop-color="#c0bfbc"
       id="stop107" />
  </linearGradient>
  <mask
     id="y">
    <g
       filter="url(#m)"
       id="g112">
      <rect
         fill-opacity="0.56294"
         height="128"
         width="128"
         id="rect110"
         x="0"
         y="0" />
    </g>
  </mask>
  <clipPath
     id="z">
    <rect
       height="152"
       width="192"
       id="rect115"
       x="0"
       y="0" />
  </clipPath>
  <g
     id="g899"
     transform="translate(0,7.4821702)">
    <path
       d="m 48.109375,2.203125 c -12.417969,0 -24.117188,4.421875 -31.378906,14 -1.550782,2.046875 -2.402344,7.035156 0.765624,8.863281 l 2.605469,1.441406 c 0.925781,0.535156 2.105469,0.21875 2.640625,-0.707031 5.238282,-9.066406 14.617188,-15.617187 25.367188,-15.617187 10.75,0 20.132812,6.550781 25.371094,15.617187 0.53125,0.925781 1.714843,1.242187 2.636718,0.707031 l 2.457032,-1.25 c 3.722656,-2.148437 2.003906,-7.160156 1.035156,-8.835937 -7.246094,-9.714844 -19,-14.21875 -31.5,-14.21875 z m 0,0"
       fill="url(#h)"
       id="path130"
       style="fill:url(#h)" />
    <path
       d="m 16.019528,38.156224 c 0,-17.695311 14.347655,-32.039058 32.042966,-32.039058 17.69531,0 32.042965,14.343747 32.042965,32.039058"
       fill="none"
       stroke="#77767b"
       stroke-linejoin="bevel"
       stroke-width="2.17853"
       id="path132" />
    <path
       d="M 80.113272,38.003881 V 54.332004"
       fill="none"
       stroke="#70727b"
       stroke-linejoin="bevel"
       stroke-width="2.17853"
       id="path134" />
    <path
       d="M 16.011715,38.003881 V 54.332004"
       fill="none"
       stroke="#70727b"
       stroke-linejoin="bevel"
       stroke-width="2.17853"
       id="path136" />
    <path
       d="m 71.628906,18.46875 c 1.8125,2.183594 3.359375,4.597656 4.578125,7.199218 0.585938,-0.523437 1.371094,-0.945312 2.15625,-1.113281 -1.019531,-2.15625 -2.25,-4.195312 -3.664062,-6.085937 z m 0,0"
       fill="#c64600"
       id="path138" />
    <path
       d="m 24.699219,18.121094 c -1.878907,2.261718 -3.476563,4.757812 -4.738282,7.449218 -0.605468,-0.539062 -1.414062,-0.976562 -2.230468,-1.152344 1.054687,-2.230468 2.328124,-4.335937 3.789062,-6.296874 z m 0,0"
       fill="#c64600"
       id="path140" />
    <path
       d="M 48.109375,0 C 35.84375,0 24.390625,5.8125 17.136719,15.488281 c 0,0 -3.476563,5.628906 0.84375,8.121094 l 1.378906,0.796875 c 0.949218,0.546875 2.160156,0.222656 2.707031,-0.726563 5.378906,-9.308593 15.292969,-15.035156 26.042969,-15.035156 10.75,0 20.667968,5.726563 26.042968,15.035156 0.546876,0.949219 1.761719,1.273438 2.710938,0.726563 l 1.417969,-0.820313 c 4.132812,-2.234375 0.792969,-8.109375 0.792969,-8.109375 C 71.820312,5.808594 60.371093,0 48.109375,0 Z m 0,0"
       fill="#ff7800"
       id="path142" />
    <path
       d="m 48.109375,5.183594 c -14.601563,0 -23.761719,7.527343 -29.933594,18.21875 -0.04687,0.07812 -0.08594,0.164062 -0.117188,0.253906 l 1.300782,0.75 c 0.949218,0.546875 2.160156,0.222656 2.707031,-0.726563 5.378906,-9.308593 15.292969,-15.035156 26.042969,-15.035156 10.75,0 20.667968,5.726563 26.042968,15.035156 0.546876,0.949219 1.761719,1.273438 2.710938,0.726563 l 1.300781,-0.75 C 78.132812,23.56641 78.089842,23.480468 78.042969,23.402344 71.871093,12.710937 62.714843,5.183594 48.109375,5.183594 Z m 0,0"
       fill="#e66100"
       id="path144" />
    <path
       d="m 24.957031,61.222656 c 0,6.890625 -5.585938,12.476562 -12.480469,12.476562 C 5.585937,73.699218 0,68.113281 0,61.222656 0,54.328125 5.585937,48.742187 12.476562,48.742187 c 6.894531,0 12.480469,5.585938 12.480469,12.480469 z m 0,0"
       fill="#3d3846"
       id="path146" />
    <path
       d="m 5.339843,51.003906 c -0.140624,0.09766 -0.28125,0.199219 -0.421874,0.300781 -0.01172,0.04297 -0.01953,0.08984 -0.01953,0.136719 0,0.238281 0.195313,0.433594 0.433594,0.433594 0.242188,0 0.4375,-0.195313 0.4375,-0.433594 0,-0.238281 -0.191406,-0.433594 -0.429688,-0.4375 z M 4.460937,51.875 c -0.238281,0 -0.433594,0.195312 -0.433594,0.4375 0,0.238281 0.195313,0.433594 0.433594,0.433594 0.242188,0 0.4375,-0.195313 0.4375,-0.433594 0,-0.242188 -0.195312,-0.4375 -0.4375,-0.4375 z m -0.871094,0.871094 c -0.238281,0 -0.433593,0.195312 -0.433593,0.4375 0,0.238281 0.195312,0.433593 0.433593,0.433593 0.242188,0 0.4375,-0.195312 0.4375,-0.433593 0,-0.242188 -0.195312,-0.4375 -0.4375,-0.4375 z m 1.742188,0 c -0.238281,0 -0.433594,0.195312 -0.433594,0.4375 0,0.238281 0.195313,0.433593 0.433594,0.433593 0.242188,0 0.4375,-0.195312 0.4375,-0.433593 0,-0.242188 -0.195312,-0.4375 -0.4375,-0.4375 z M 2.71875,53.617187 c -0.04297,0 -0.08984,0.0078 -0.132813,0.02344 -0.101562,0.128906 -0.203125,0.261719 -0.300781,0.398437 v 0.01563 c 0,0.242188 0.195313,0.433594 0.433594,0.433594 0.242187,0 0.4375,-0.191406 0.4375,-0.433594 0,-0.242187 -0.195313,-0.4375 -0.4375,-0.4375 z m 1.742187,0 c -0.238281,0 -0.433594,0.195313 -0.433594,0.4375 0,0.242188 0.195313,0.433594 0.433594,0.433594 0.242188,0 0.4375,-0.191406 0.4375,-0.433594 0,-0.242187 -0.195312,-0.4375 -0.4375,-0.4375 z m -0.871094,0.871094 c -0.238281,0 -0.433593,0.195313 -0.433593,0.4375 0,0.242187 0.195312,0.4375 0.433593,0.4375 0.242188,0 0.4375,-0.195313 0.4375,-0.4375 0,-0.242187 -0.195312,-0.4375 -0.4375,-0.4375 z m 1.742188,0 c -0.238281,0 -0.433594,0.195313 -0.433594,0.4375 0,0.242187 0.195313,0.4375 0.433594,0.4375 0.242188,0 0.4375,-0.195313 0.4375,-0.4375 0,-0.242187 -0.195312,-0.4375 -0.4375,-0.4375 z m -3.355469,0.01953 c -0.15625,0.234375 -0.304687,0.476563 -0.441406,0.71875 0.08203,0.08594 0.195313,0.132813 0.3125,0.136719 0.242187,0 0.4375,-0.195313 0.4375,-0.4375 0,-0.191406 -0.125,-0.359375 -0.308594,-0.417969 z M 2.71875,55.36328 c -0.238281,0 -0.433594,0.191406 -0.433594,0.433594 0,0.242187 0.195313,0.4375 0.433594,0.4375 0.242187,0 0.4375,-0.195313 0.4375,-0.4375 0,-0.242188 -0.195313,-0.433594 -0.4375,-0.433594 z m 1.742187,0 c -0.238281,0 -0.433594,0.191406 -0.433594,0.433594 0,0.242187 0.195313,0.4375 0.433594,0.4375 0.242188,0 0.4375,-0.195313 0.4375,-0.4375 0,-0.242188 -0.195312,-0.433594 -0.4375,-0.433594 z M 1.359375,55.589843 C 1.25,55.796874 1.148437,56.011717 1.050781,56.226561 c 0.207031,-0.03516 0.363281,-0.21875 0.363281,-0.429687 0,-0.07422 -0.01953,-0.144531 -0.05469,-0.207031 z m 0.488281,0.644531 c -0.242187,0 -0.433594,0.195312 -0.433594,0.433593 0,0.242188 0.191407,0.4375 0.433594,0.4375 0.242187,0 0.4375,-0.195312 0.4375,-0.4375 0,-0.238281 -0.195313,-0.433593 -0.4375,-0.433593 z m 1.742187,0 c -0.238281,0 -0.433593,0.195312 -0.433593,0.433593 0,0.242188 0.195312,0.4375 0.433593,0.4375 0.242188,0 0.4375,-0.195312 0.4375,-0.4375 0,-0.238281 -0.195312,-0.433593 -0.4375,-0.433593 z m 1.742188,0 c -0.238281,0 -0.433594,0.195312 -0.433594,0.433593 0,0.242188 0.195313,0.4375 0.433594,0.4375 0.242188,0 0.4375,-0.195312 0.4375,-0.4375 0,-0.238281 -0.195312,-0.433593 -0.4375,-0.433593 z m -4.355469,0.871093 c -0.117187,0 -0.226562,0.04688 -0.308593,0.128907 -0.04297,0.117187 -0.08594,0.234375 -0.125,0.351562 0.02344,0.222657 0.210937,0.390625 0.433593,0.390625 0.242188,0 0.4375,-0.195312 0.4375,-0.4375 0,-0.238281 -0.195312,-0.433594 -0.4375,-0.433594 z m 1.742188,0 c -0.238281,0 -0.433594,0.195313 -0.433594,0.433594 0,0.242188 0.195313,0.4375 0.433594,0.4375 0.242187,0 0.4375,-0.195312 0.4375,-0.4375 0,-0.238281 -0.195313,-0.433594 -0.4375,-0.433594 z m 1.742187,0 c -0.238281,0 -0.433594,0.195313 -0.433594,0.433594 0,0.242188 0.195313,0.4375 0.433594,0.4375 0.242188,0 0.4375,-0.195312 0.4375,-0.4375 0,-0.238281 -0.195312,-0.433594 -0.4375,-0.433594 z m -2.613281,0.871094 c -0.242187,0 -0.433594,0.195313 -0.433594,0.433594 0,0.242188 0.191407,0.4375 0.433594,0.4375 0.242187,0 0.4375,-0.195312 0.4375,-0.4375 0,-0.238281 -0.195313,-0.433594 -0.4375,-0.433594 z m 1.742187,0 c -0.238281,0 -0.433593,0.195313 -0.433593,0.433594 0,0.242188 0.195312,0.4375 0.433593,0.4375 0.242188,0 0.4375,-0.195312 0.4375,-0.4375 0,-0.238281 -0.195312,-0.433594 -0.4375,-0.433594 z m 1.742188,0 c -0.238281,0 -0.433594,0.195313 -0.433594,0.433594 0,0.242188 0.195313,0.4375 0.433594,0.4375 0.242188,0 0.4375,-0.195312 0.4375,-0.4375 0,-0.238281 -0.195312,-0.433594 -0.4375,-0.433594 z m -4.917969,0.125 c -0.06641,0.242188 -0.125,0.480469 -0.179687,0.726563 0.183594,-0.05859 0.304687,-0.226563 0.304687,-0.417969 0,-0.113281 -0.04297,-0.226562 -0.125,-0.308594 z m 0.5625,0.746094 c -0.242187,0 -0.4375,0.195312 -0.4375,0.433594 0,0.242187 0.195313,0.4375 0.4375,0.4375 0.242188,0 0.4375,-0.195313 0.4375,-0.4375 0,-0.238282 -0.195312,-0.433594 -0.4375,-0.433594 z m 1.742188,0 c -0.238281,0 -0.433594,0.195312 -0.433594,0.433594 0,0.242187 0.195313,0.4375 0.433594,0.4375 0.242187,0 0.4375,-0.195313 0.4375,-0.4375 0,-0.238282 -0.195313,-0.433594 -0.4375,-0.433594 z m 1.742187,0 c -0.238281,0 -0.433594,0.195312 -0.433594,0.433594 0,0.242187 0.195313,0.4375 0.433594,0.4375 0.242188,0 0.4375,-0.195313 0.4375,-0.4375 0,-0.238282 -0.195312,-0.433594 -0.4375,-0.433594 z m -4.359375,0.871094 c -0.03516,0.289062 -0.05469,0.574218 -0.07031,0.863281 0.02344,0.0039 0.05078,0.0078 0.07422,0.0078 0.242187,0 0.433593,-0.195313 0.433593,-0.4375 0,-0.238282 -0.191406,-0.433594 -0.433593,-0.433594 z m 1.746094,0 c -0.242187,0 -0.433594,0.195312 -0.433594,0.433594 0,0.242187 0.191407,0.4375 0.433594,0.4375 0.242187,0 0.4375,-0.195313 0.4375,-0.4375 0,-0.238282 -0.195313,-0.433594 -0.4375,-0.433594 z m 1.742187,0 c -0.238281,0 -0.433593,0.195312 -0.433593,0.433594 0,0.242187 0.195312,0.4375 0.433593,0.4375 0.242188,0 0.4375,-0.195313 0.4375,-0.4375 0,-0.238282 -0.195312,-0.433594 -0.4375,-0.433594 z m 1.742188,0 c -0.238281,0 -0.433594,0.195312 -0.433594,0.433594 0,0.242187 0.195313,0.4375 0.433594,0.4375 0.242188,0 0.4375,-0.195313 0.4375,-0.4375 0,-0.238282 -0.195312,-0.433594 -0.4375,-0.433594 z m -4.355469,0.871094 c -0.242187,0 -0.4375,0.195312 -0.4375,0.4375 0,0.238281 0.195313,0.433593 0.4375,0.433593 0.242188,0 0.4375,-0.195312 0.4375,-0.433593 0,-0.242188 -0.195312,-0.4375 -0.4375,-0.4375 z m 1.742188,0 c -0.238281,0 -0.433594,0.195312 -0.433594,0.4375 0,0.238281 0.195313,0.433593 0.433594,0.433593 0.242187,0 0.4375,-0.195312 0.4375,-0.433593 0,-0.242188 -0.195313,-0.4375 -0.4375,-0.4375 z m 1.742187,0 c -0.238281,0 -0.433594,0.195312 -0.433594,0.4375 0,0.238281 0.195313,0.433593 0.433594,0.433593 0.242188,0 0.4375,-0.195312 0.4375,-0.433593 0,-0.242188 -0.195312,-0.4375 -0.4375,-0.4375 z m -4.355468,0.871093 c -0.03125,0 -0.06641,0.0039 -0.09766,0.01172 0.0078,0.285156 0.02344,0.570312 0.05078,0.859375 h 0.04688 c 0.242187,0 0.433593,-0.195313 0.433593,-0.433594 0,-0.242187 -0.191406,-0.4375 -0.433593,-0.437501 z m 1.742187,0 c -0.242187,0 -0.433594,0.195313 -0.433594,0.4375 0,0.238281 0.191407,0.433594 0.433594,0.433594 0.242187,0 0.4375,-0.195313 0.4375,-0.433594 0,-0.242187 -0.195313,-0.4375 -0.4375,-0.4375 z m 1.742187,0 c -0.238281,0 -0.433593,0.195313 -0.433593,0.4375 0,0.238281 0.195312,0.433594 0.433593,0.433594 0.242188,0 0.4375,-0.195313 0.4375,-0.433594 0,-0.242187 -0.195312,-0.4375 -0.4375,-0.4375 z m 1.742188,0 c -0.238281,0 -0.433594,0.195313 -0.433594,0.4375 0,0.238281 0.195313,0.433594 0.433594,0.433594 0.242188,0 0.4375,-0.195313 0.4375,-0.433594 0,-0.242187 -0.195312,-0.4375 -0.4375,-0.4375 z M 0.976562,62.33203 c -0.242187,0 -0.4375,0.195313 -0.4375,0.4375 0,0.238281 0.195313,0.433594 0.4375,0.433594 0.242188,0 0.4375,-0.195313 0.4375,-0.433594 0,-0.242187 -0.195312,-0.4375 -0.4375,-0.4375 z m 1.742188,0 c -0.238281,0 -0.433594,0.195313 -0.433594,0.4375 0,0.238281 0.195313,0.433594 0.433594,0.433594 0.242187,0 0.4375,-0.195313 0.4375,-0.433594 0,-0.242187 -0.195313,-0.4375 -0.4375,-0.4375 z m 1.742187,0 c -0.238281,0 -0.433594,0.195313 -0.433594,0.4375 0,0.238281 0.195313,0.433594 0.433594,0.433594 0.242188,0 0.4375,-0.195313 0.4375,-0.433594 0,-0.242187 -0.195312,-0.4375 -0.4375,-0.4375 z m -2.613281,0.871094 c -0.242187,0 -0.433594,0.195312 -0.433594,0.4375 0,0.238281 0.191407,0.433593 0.433594,0.433593 0.242187,0 0.4375,-0.195312 0.4375,-0.433593 0,-0.242188 -0.195313,-0.4375 -0.4375,-0.4375 z m 1.742187,0 c -0.238281,0 -0.433593,0.195312 -0.433593,0.4375 0,0.238281 0.195312,0.433593 0.433593,0.433593 0.242188,0 0.4375,-0.195312 0.4375,-0.433593 0,-0.242188 -0.195312,-0.4375 -0.4375,-0.4375 z m 1.742188,0 c -0.238281,0 -0.433594,0.195312 -0.433594,0.4375 0,0.238281 0.195313,0.433593 0.433594,0.433593 0.242188,0 0.4375,-0.195312 0.4375,-0.433593 0,-0.242188 -0.195312,-0.4375 -0.4375,-0.4375 z m -5.167969,0.0039 c 0.04687,0.269531 0.105469,0.539063 0.167969,0.804687 0.128906,-0.07812 0.207031,-0.21875 0.207031,-0.371093 0,-0.21875 -0.160156,-0.402344 -0.375,-0.433594 z m 0.8125,0.867187 c -0.242187,0 -0.4375,0.195313 -0.4375,0.4375 0,0.238282 0.195313,0.433594 0.4375,0.433594 0.242188,0 0.4375,-0.195312 0.4375,-0.433594 0,-0.242187 -0.195312,-0.4375 -0.4375,-0.4375 z m 1.742188,0 c -0.238281,0 -0.433594,0.195313 -0.433594,0.4375 0,0.238282 0.195313,0.433594 0.433594,0.433594 0.242187,0 0.4375,-0.195312 0.4375,-0.433594 0,-0.242187 -0.195313,-0.4375 -0.4375,-0.4375 z m 1.742187,0 c -0.238281,0 -0.433594,0.195313 -0.433594,0.4375 0,0.238282 0.195313,0.433594 0.433594,0.433594 0.242188,0 0.4375,-0.195312 0.4375,-0.433594 0,-0.242187 -0.195312,-0.4375 -0.4375,-0.4375 z m -2.613281,0.871094 c -0.242187,0 -0.433594,0.195313 -0.433594,0.4375 0,0.242188 0.191407,0.4375 0.433594,0.4375 0.242187,0 0.4375,-0.195312 0.4375,-0.4375 0,-0.242187 -0.195313,-0.4375 -0.4375,-0.4375 z m 1.742187,0 c -0.238281,0 -0.433593,0.195313 -0.433593,0.4375 0,0.242188 0.195312,0.4375 0.433593,0.4375 0.242188,0 0.4375,-0.195312 0.4375,-0.4375 0,-0.242187 -0.195312,-0.4375 -0.4375,-0.4375 z m 1.742188,0 c -0.238281,0 -0.433594,0.195313 -0.433594,0.4375 0,0.242188 0.195313,0.4375 0.433594,0.4375 0.242188,0 0.4375,-0.195312 0.4375,-0.4375 0,-0.242187 -0.195312,-0.4375 -0.4375,-0.4375 z m -4.355469,0.875 c -0.03125,0 -0.05859,0 -0.08984,0.0078 0.105468,0.261719 0.222656,0.523437 0.347656,0.777343 0.113281,-0.08203 0.179687,-0.214843 0.179687,-0.351562 0,-0.242188 -0.195312,-0.433594 -0.4375,-0.433594 z m 1.742188,0 c -0.238281,0 -0.433594,0.191406 -0.433594,0.433594 0,0.242188 0.195313,0.4375 0.433594,0.4375 0.242187,0 0.4375,-0.195312 0.4375,-0.4375 0,-0.242188 -0.195313,-0.433594 -0.4375,-0.433594 z m 1.742187,0 c -0.238281,0 -0.433594,0.191406 -0.433594,0.433594 0,0.242188 0.195313,0.4375 0.433594,0.4375 0.242188,0 0.4375,-0.195312 0.4375,-0.4375 0,-0.242188 -0.195312,-0.433594 -0.4375,-0.433594 z m -2.613281,0.871094 c -0.195313,0 -0.363281,0.128906 -0.417969,0.316406 0.09766,0.179688 0.203125,0.363282 0.308594,0.539063 0.03516,0.0078 0.07422,0.01563 0.109375,0.01563 0.242187,0 0.4375,-0.195313 0.4375,-0.4375 0,-0.238282 -0.195313,-0.433594 -0.4375,-0.433594 z m 1.742187,0 c -0.238281,0 -0.433593,0.195312 -0.433593,0.433594 0,0.242187 0.195312,0.4375 0.433593,0.4375 0.242188,0 0.4375,-0.195313 0.4375,-0.4375 0,-0.238282 -0.195312,-0.433594 -0.4375,-0.433594 z m 1.742188,0 c -0.238281,0 -0.433594,0.195312 -0.433594,0.433594 0,0.242187 0.195313,0.4375 0.433594,0.4375 0.242188,0 0.4375,-0.195313 0.4375,-0.4375 0,-0.238282 -0.195312,-0.433594 -0.4375,-0.433594 z M 2.71875,67.562493 c -0.238281,0 -0.433594,0.195312 -0.433594,0.433594 0,0.242187 0.195313,0.4375 0.433594,0.4375 0.242187,0 0.4375,-0.195313 0.4375,-0.4375 0,-0.238282 -0.195313,-0.433594 -0.4375,-0.433594 z m 1.742187,0 c -0.238281,0 -0.433594,0.195312 -0.433594,0.433594 0,0.242187 0.195313,0.4375 0.433594,0.4375 0.242188,0 0.4375,-0.195313 0.4375,-0.4375 0,-0.238282 -0.195312,-0.433594 -0.4375,-0.433594 z m -0.871094,0.871094 c -0.238281,0 -0.433593,0.195312 -0.433593,0.433593 0,0.242188 0.195312,0.4375 0.433593,0.4375 0.242188,0 0.4375,-0.195312 0.4375,-0.4375 0,-0.238281 -0.195312,-0.433593 -0.4375,-0.433593 z m 1.742188,0 c -0.238281,0 -0.433594,0.195312 -0.433594,0.433593 0,0.242188 0.195313,0.4375 0.433594,0.4375 0.242188,0 0.4375,-0.195312 0.4375,-0.4375 0,-0.238281 -0.195312,-0.433593 -0.4375,-0.433593 z M 4.460937,69.30468 c -0.238281,0 -0.433594,0.195313 -0.433594,0.433594 0,0.242187 0.195313,0.4375 0.433594,0.4375 0.242188,0 0.4375,-0.195313 0.4375,-0.4375 0,-0.238281 -0.195312,-0.433594 -0.4375,-0.433594 z m 0.871094,0.871094 c -0.238281,0 -0.433594,0.195313 -0.433594,0.433594 0,0.242187 0.195313,0.4375 0.433594,0.4375 0.242188,0 0.4375,-0.195313 0.4375,-0.4375 0,-0.238281 -0.195312,-0.433594 -0.4375,-0.433594 z m 0,0"
       fill="#241f31"
       id="path148" />
    <path
       d="m 17.945312,40.859375 c -3.726562,0 -7.445312,1.09375 -10.582031,3.105469 -1.171875,0.753906 -1.878906,2.050781 -1.878906,3.441406 v 27.375 c 0,1.390625 0.703125,2.6875 1.871094,3.4375 3.132812,2.023437 6.855468,3.121094 10.582031,3.128906 h 0.01172 c 4.496093,-0.0039 8.050781,-1.617188 11.519531,-4.476562 0.941406,-0.777344 1.484375,-1.933594 1.484375,-3.15625 V 48.488281 c 0,-1.222656 -0.542969,-2.378906 -1.488282,-3.15625 -3.46875,-2.859375 -7.019531,-4.46875 -11.515624,-4.472656 z m 0,0"
       fill="url(#j)"
       id="path150"
       style="fill:url(#j)" />
    <path
       d="m 22.027343,41.355468 v 39.496094 c 2.699219,-0.679687 5.089844,-2.039062 7.441407,-3.980468 0.941406,-0.777344 1.484375,-1.933594 1.484375,-3.15625 V 48.488281 c 0,-1.222656 -0.542969,-2.378906 -1.488282,-3.15625 -2.351562,-1.9375 -4.742187,-3.296875 -7.4375,-3.976563 z m 0,0"
       fill="url(#l)"
       id="path152"
       style="fill:url(#l)" />
    <g
       clip-path="url(#p)"
       mask="url(#n)"
       transform="translate(-23.886719,-20.089844)"
       id="g156">
      <path
         d="M 90.224109,7.752846 V 129.25086"
         fill="none"
         stroke="url(#o)"
         stroke-linecap="round"
         stroke-linejoin="bevel"
         stroke-width="5"
         transform="matrix(0.217853,0,0,0.217853,10.485,65.865704)"
         id="path154"
         style="stroke:url(#radialGradient3363)" />
    </g>
    <path
       d="m 71.355469,61.222656 c 0,6.890625 5.585937,12.476562 12.476562,12.476562 6.89063,0 12.48047,-5.585937 12.48047,-12.476562 0,-6.894531 -5.58984,-12.480469 -12.48047,-12.480469 -6.890625,0 -12.476562,5.585938 -12.476562,12.480469 z m 0,0"
       fill="#3d3846"
       id="path158" />
    <path
       d="m 90.972661,51.003906 c 0.14062,0.09766 0.28125,0.199219 0.41796,0.300781 0.0156,0.04297 0.0234,0.08984 0.0234,0.136719 0,0.238281 -0.19531,0.433594 -0.4375,0.433594 -0.23828,0 -0.43359,-0.195313 -0.43359,-0.433594 0,-0.238281 0.1914,-0.433594 0.42969,-0.4375 z m 0.875,0.871094 c 0.24218,0 0.4375,0.195312 0.4375,0.4375 0,0.238281 -0.19532,0.433594 -0.4375,0.433594 -0.23829,0 -0.4336,-0.195313 -0.4336,-0.433594 0,-0.242188 0.19531,-0.4375 0.4336,-0.4375 z m 0.87109,0.871094 c 0.24219,0 0.4375,0.195312 0.4375,0.4375 0,0.238281 -0.19531,0.433593 -0.4375,0.433593 -0.23828,0 -0.43359,-0.195312 -0.43359,-0.433593 0,-0.242188 0.19531,-0.4375 0.43359,-0.4375 z m -1.74219,0 c 0.24219,0 0.4375,0.195312 0.4375,0.4375 0,0.238281 -0.19531,0.433593 -0.4375,0.433593 -0.23828,0 -0.43359,-0.195312 -0.43359,-0.433593 0,-0.242188 0.19531,-0.4375 0.43359,-0.4375 z m 2.61719,0.871093 c 0.043,0 0.0859,0.0078 0.12891,0.02344 0.10546,0.128906 0.20703,0.261719 0.30468,0.398437 v 0.01563 c 0,0.242188 -0.19531,0.433594 -0.43359,0.433594 -0.24219,0 -0.4375,-0.191406 -0.4375,-0.433594 0,-0.242187 0.19531,-0.4375 0.4375,-0.4375 z m -1.74609,0 c 0.24218,0 0.4375,0.195313 0.4375,0.4375 0,0.238281 -0.19532,0.433594 -0.4375,0.433594 -0.23829,0 -0.4336,-0.195313 -0.4336,-0.433594 0,-0.242187 0.19531,-0.4375 0.4336,-0.4375 z m 0.87109,0.871094 c 0.24219,0 0.4375,0.195313 0.4375,0.4375 0,0.242187 -0.19531,0.4375 -0.4375,0.4375 -0.23828,0 -0.43359,-0.195313 -0.43359,-0.4375 0,-0.242187 0.19531,-0.4375 0.43359,-0.4375 z m -1.74219,0 c 0.24219,0 0.4375,0.195313 0.4375,0.4375 0,0.242187 -0.19531,0.4375 -0.4375,0.4375 -0.23828,0 -0.43359,-0.195313 -0.43359,-0.4375 0,-0.242187 0.19531,-0.4375 0.43359,-0.4375 z m 3.35938,0.01953 c 0.15625,0.234375 0.30078,0.476563 0.4414,0.71875 -0.082,0.08594 -0.19531,0.132813 -0.3125,0.136719 -0.24218,0 -0.4375,-0.195313 -0.4375,-0.4375 0,-0.191406 0.125,-0.359375 0.3086,-0.417969 z m -0.74219,0.855469 c 0.23828,0 0.43359,0.191406 0.43359,0.433594 0,0.242187 -0.19531,0.4375 -0.43359,0.4375 -0.24219,0 -0.4375,-0.195313 -0.4375,-0.4375 0,-0.242188 0.19531,-0.433594 0.4375,-0.433594 z m -1.74609,0 c 0.24218,0 0.4375,0.191406 0.4375,0.433594 0,0.242187 -0.19532,0.4375 -0.4375,0.4375 -0.23829,0 -0.4336,-0.195313 -0.4336,-0.4375 0,-0.242188 0.19531,-0.433594 0.4336,-0.433594 z m 3.10546,0.226563 c 0.10938,0.207031 0.21094,0.421874 0.3086,0.636718 -0.21094,-0.03516 -0.36328,-0.21875 -0.36328,-0.429687 0,-0.07422 0.0195,-0.144531 0.0547,-0.207031 z m -0.48828,0.644531 c 0.23828,0 0.4336,0.195312 0.4336,0.433593 0,0.242188 -0.19532,0.4375 -0.4336,0.4375 -0.24218,0 -0.4375,-0.195312 -0.4375,-0.4375 0,-0.238281 0.19532,-0.433593 0.4375,-0.433593 z m -1.74609,0 c 0.24219,0 0.4375,0.195312 0.4375,0.433593 0,0.242188 -0.19531,0.4375 -0.4375,0.4375 -0.23828,0 -0.43359,-0.195312 -0.43359,-0.4375 0,-0.238281 0.19531,-0.433593 0.43359,-0.433593 z m -1.74219,0 c 0.24219,0 0.4375,0.195312 0.4375,0.433593 0,0.242188 -0.19531,0.4375 -0.4375,0.4375 -0.23828,0 -0.43359,-0.195312 -0.43359,-0.4375 0,-0.238281 0.19531,-0.433593 0.43359,-0.433593 z m 4.35938,0.871093 c 0.11328,0 0.22656,0.04688 0.30859,0.128907 0.043,0.117187 0.082,0.234375 0.12109,0.351562 -0.0234,0.222657 -0.20703,0.390625 -0.42968,0.390625 -0.24219,0 -0.4375,-0.195312 -0.4375,-0.4375 0,-0.238281 0.19531,-0.433594 0.4375,-0.433594 z m -1.74219,0 c 0.23828,0 0.43359,0.195313 0.43359,0.433594 0,0.242188 -0.19531,0.4375 -0.43359,0.4375 -0.24219,0 -0.4375,-0.195312 -0.4375,-0.4375 0,-0.238281 0.19531,-0.433594 0.4375,-0.433594 z m -1.74609,0 c 0.24218,0 0.4375,0.195313 0.4375,0.433594 0,0.242188 -0.19532,0.4375 -0.4375,0.4375 -0.23829,0 -0.4336,-0.195312 -0.4336,-0.4375 0,-0.238281 0.19531,-0.433594 0.4336,-0.433594 z m 2.61718,0.871094 c 0.23828,0 0.4336,0.195313 0.4336,0.433594 0,0.242188 -0.19532,0.4375 -0.4336,0.4375 -0.24218,0 -0.4375,-0.195312 -0.4375,-0.4375 0,-0.238281 0.19532,-0.433594 0.4375,-0.433594 z m -1.74609,0 c 0.24219,0 0.4375,0.195313 0.4375,0.433594 0,0.242188 -0.19531,0.4375 -0.4375,0.4375 -0.23828,0 -0.43359,-0.195312 -0.43359,-0.4375 0,-0.238281 0.19531,-0.433594 0.43359,-0.433594 z m -1.74219,0 c 0.24219,0 0.4375,0.195313 0.4375,0.433594 0,0.242188 -0.19531,0.4375 -0.4375,0.4375 -0.23828,0 -0.43359,-0.195312 -0.43359,-0.4375 0,-0.238281 0.19531,-0.433594 0.43359,-0.433594 z m 4.92188,0.125 c 0.0664,0.242188 0.125,0.480469 0.17578,0.726563 -0.17969,-0.05859 -0.30469,-0.226563 -0.30469,-0.417969 0,-0.113281 0.0469,-0.226562 0.12891,-0.308594 z m -0.5625,0.746094 c 0.23828,0 0.43359,0.195312 0.43359,0.433594 0,0.242187 -0.19531,0.4375 -0.43359,0.4375 -0.24219,0 -0.4375,-0.195313 -0.4375,-0.4375 0,-0.238282 0.19531,-0.433594 0.4375,-0.433594 z m -1.74219,0 c 0.23828,0 0.43359,0.195312 0.43359,0.433594 0,0.242187 -0.19531,0.4375 -0.43359,0.4375 -0.24219,0 -0.4375,-0.195313 -0.4375,-0.4375 0,-0.238282 0.19531,-0.433594 0.4375,-0.433594 z m -1.74609,0 c 0.24218,0 0.4375,0.195312 0.4375,0.433594 0,0.242187 -0.19532,0.4375 -0.4375,0.4375 -0.23829,0 -0.4336,-0.195313 -0.4336,-0.4375 0,-0.238282 0.19531,-0.433594 0.4336,-0.433594 z m 4.36328,0.871094 c 0.0312,0.289062 0.0547,0.574218 0.0664,0.863281 -0.0234,0.0039 -0.0469,0.0078 -0.0703,0.0078 -0.24219,0 -0.4375,-0.195313 -0.4375,-0.4375 0,-0.238282 0.19531,-0.433594 0.4375,-0.433594 z m -1.7461,0 c 0.23828,0 0.4336,0.195312 0.4336,0.433594 0,0.242187 -0.19532,0.4375 -0.4336,0.4375 -0.24218,0 -0.4375,-0.195313 -0.4375,-0.4375 0,-0.238282 0.19532,-0.433594 0.4375,-0.433594 z m -1.74609,0 c 0.24219,0 0.4375,0.195312 0.4375,0.433594 0,0.242187 -0.19531,0.4375 -0.4375,0.4375 -0.23828,0 -0.43359,-0.195313 -0.43359,-0.4375 0,-0.238282 0.19531,-0.433594 0.43359,-0.433594 z m -1.74219,0 c 0.24219,0 0.4375,0.195312 0.4375,0.433594 0,0.242187 -0.19531,0.4375 -0.4375,0.4375 -0.23828,0 -0.43359,-0.195313 -0.43359,-0.4375 0,-0.238282 0.19531,-0.433594 0.43359,-0.433594 z m 4.35938,0.871094 c 0.23828,0 0.43359,0.195312 0.43359,0.4375 0,0.238281 -0.19531,0.433593 -0.43359,0.433593 -0.24219,0 -0.4375,-0.195312 -0.4375,-0.433593 0,-0.242188 0.19531,-0.4375 0.4375,-0.4375 z m -1.74219,0 c 0.23828,0 0.43359,0.195312 0.43359,0.4375 0,0.238281 -0.19531,0.433593 -0.43359,0.433593 -0.24219,0 -0.4375,-0.195312 -0.4375,-0.433593 0,-0.242188 0.19531,-0.4375 0.4375,-0.4375 z m -1.74609,0 c 0.24218,0 0.4375,0.195312 0.4375,0.4375 0,0.238281 -0.19532,0.433593 -0.4375,0.433593 -0.23829,0 -0.4336,-0.195312 -0.4336,-0.433593 0,-0.242188 0.19531,-0.4375 0.4336,-0.4375 z m 4.35937,0.871093 c 0.0312,0 0.0625,0.0039 0.0937,0.01172 -0.004,0.285156 -0.0234,0.570312 -0.0469,0.859375 -0.0156,0 -0.0312,0 -0.0469,0 -0.24219,0 -0.4375,-0.195313 -0.4375,-0.433594 0,-0.242187 0.19531,-0.4375 0.4375,-0.4375 z m -1.74219,0 c 0.23828,0 0.4336,0.195313 0.4336,0.4375 0,0.238281 -0.19532,0.433594 -0.4336,0.433594 -0.24218,0 -0.4375,-0.195313 -0.4375,-0.433594 0,-0.242187 0.19532,-0.4375 0.4375,-0.4375 z m -1.74609,0 c 0.24219,0 0.4375,0.195313 0.4375,0.4375 0,0.238281 -0.19531,0.433594 -0.4375,0.433594 -0.23828,0 -0.43359,-0.195313 -0.43359,-0.433594 0,-0.242187 0.19531,-0.4375 0.43359,-0.4375 z m -1.74219,0 c 0.24219,0 0.4375,0.195313 0.4375,0.4375 0,0.238281 -0.19531,0.433594 -0.4375,0.433594 -0.23828,0 -0.43359,-0.195313 -0.43359,-0.433594 0,-0.242187 0.19531,-0.4375 0.43359,-0.4375 z m 4.35938,0.871094 c 0.23828,0 0.43359,0.195313 0.43359,0.4375 0,0.238281 -0.19531,0.433594 -0.43359,0.433594 -0.24219,0 -0.4375,-0.195313 -0.4375,-0.433594 0,-0.242187 0.19531,-0.4375 0.4375,-0.4375 z m -1.74219,0 c 0.23828,0 0.43359,0.195313 0.43359,0.4375 0,0.238281 -0.19531,0.433594 -0.43359,0.433594 -0.24219,0 -0.4375,-0.195313 -0.4375,-0.433594 0,-0.242187 0.19531,-0.4375 0.4375,-0.4375 z m -1.74609,0 c 0.24218,0 0.4375,0.195313 0.4375,0.4375 0,0.238281 -0.19532,0.433594 -0.4375,0.433594 -0.23829,0 -0.4336,-0.195313 -0.4336,-0.433594 0,-0.242187 0.19531,-0.4375 0.4336,-0.4375 z m 2.61718,0.871094 c 0.23828,0 0.4336,0.195312 0.4336,0.4375 0,0.238281 -0.19532,0.433593 -0.4336,0.433593 -0.24218,0 -0.4375,-0.195312 -0.4375,-0.433593 0,-0.242188 0.19532,-0.4375 0.4375,-0.4375 z m -1.74609,0 c 0.24219,0 0.4375,0.195312 0.4375,0.4375 0,0.238281 -0.19531,0.433593 -0.4375,0.433593 -0.23828,0 -0.43359,-0.195312 -0.43359,-0.433593 0,-0.242188 0.19531,-0.4375 0.43359,-0.4375 z m -1.74219,0 c 0.24219,0 0.4375,0.195312 0.4375,0.4375 0,0.238281 -0.19531,0.433593 -0.4375,0.433593 -0.23828,0 -0.43359,-0.195312 -0.43359,-0.433593 0,-0.242188 0.19531,-0.4375 0.43359,-0.4375 z m 5.16797,0.0039 c -0.0469,0.269531 -0.10156,0.539063 -0.16406,0.804687 -0.12891,-0.07812 -0.21094,-0.21875 -0.21094,-0.371093 0,-0.21875 0.16016,-0.402344 0.375,-0.433594 z m -0.80859,0.867187 c 0.23828,0 0.43359,0.195313 0.43359,0.4375 0,0.238282 -0.19531,0.433594 -0.43359,0.433594 -0.24219,0 -0.4375,-0.195312 -0.4375,-0.433594 0,-0.242187 0.19531,-0.4375 0.4375,-0.4375 z m -1.74219,0 c 0.23828,0 0.43359,0.195313 0.43359,0.4375 0,0.238282 -0.19531,0.433594 -0.43359,0.433594 -0.24219,0 -0.4375,-0.195312 -0.4375,-0.433594 0,-0.242187 0.19531,-0.4375 0.4375,-0.4375 z m -1.74609,0 c 0.24218,0 0.4375,0.195313 0.4375,0.4375 0,0.238282 -0.19532,0.433594 -0.4375,0.433594 -0.23829,0 -0.4336,-0.195312 -0.4336,-0.433594 0,-0.242187 0.19531,-0.4375 0.4336,-0.4375 z m 2.61718,0.871094 c 0.23828,0 0.4336,0.195313 0.4336,0.4375 0,0.242188 -0.19532,0.4375 -0.4336,0.4375 -0.24218,0 -0.4375,-0.195312 -0.4375,-0.4375 0,-0.242187 0.19532,-0.4375 0.4375,-0.4375 z m -1.74609,0 c 0.24219,0 0.4375,0.195313 0.4375,0.4375 0,0.242188 -0.19531,0.4375 -0.4375,0.4375 -0.23828,0 -0.43359,-0.195312 -0.43359,-0.4375 0,-0.242187 0.19531,-0.4375 0.43359,-0.4375 z m -1.74219,0 c 0.24219,0 0.4375,0.195313 0.4375,0.4375 0,0.242188 -0.19531,0.4375 -0.4375,0.4375 -0.23828,0 -0.43359,-0.195312 -0.43359,-0.4375 0,-0.242187 0.19531,-0.4375 0.43359,-0.4375 z m 4.35938,0.875 c 0.0273,0 0.0586,0 0.0898,0.0078 -0.10937,0.261719 -0.22266,0.523437 -0.34766,0.777343 -0.11328,-0.08203 -0.17968,-0.214843 -0.17968,-0.351562 0,-0.242188 0.19531,-0.433594 0.4375,-0.433594 z m -1.74219,0 c 0.23828,0 0.43359,0.191406 0.43359,0.433594 0,0.242188 -0.19531,0.4375 -0.43359,0.4375 -0.24219,0 -0.4375,-0.195312 -0.4375,-0.4375 0,-0.242188 0.19531,-0.433594 0.4375,-0.433594 z m -1.74609,0 c 0.24218,0 0.4375,0.191406 0.4375,0.433594 0,0.242188 -0.19532,0.4375 -0.4375,0.4375 -0.23829,0 -0.4336,-0.195312 -0.4336,-0.4375 0,-0.242188 0.19531,-0.433594 0.4336,-0.433594 z m 2.61718,0.871094 c 0.19141,0 0.36328,0.128906 0.41797,0.316406 -0.10156,0.179688 -0.20312,0.363282 -0.3125,0.539063 -0.0352,0.0078 -0.0703,0.01563 -0.10547,0.01563 -0.24218,0 -0.4375,-0.195313 -0.4375,-0.4375 0,-0.238282 0.19532,-0.433594 0.4375,-0.433594 z m -1.74609,0 c 0.24219,0 0.4375,0.195312 0.4375,0.433594 0,0.242187 -0.19531,0.4375 -0.4375,0.4375 -0.23828,0 -0.43359,-0.195313 -0.43359,-0.4375 0,-0.238282 0.19531,-0.433594 0.43359,-0.433594 z m -1.74219,0 c 0.24219,0 0.4375,0.195312 0.4375,0.433594 0,0.242187 -0.19531,0.4375 -0.4375,0.4375 -0.23828,0 -0.43359,-0.195313 -0.43359,-0.4375 0,-0.238282 0.19531,-0.433594 0.43359,-0.433594 z m 2.61719,0.871094 c 0.23828,0 0.43359,0.195312 0.43359,0.433594 0,0.242187 -0.19531,0.4375 -0.43359,0.4375 -0.24219,0 -0.4375,-0.195313 -0.4375,-0.4375 0,-0.238282 0.19531,-0.433594 0.4375,-0.433594 z m -1.74609,0 c 0.24218,0 0.4375,0.195312 0.4375,0.433594 0,0.242187 -0.19532,0.4375 -0.4375,0.4375 -0.23829,0 -0.4336,-0.195313 -0.4336,-0.4375 0,-0.238282 0.19531,-0.433594 0.4336,-0.433594 z m 0.87109,0.871094 c 0.24219,0 0.4375,0.195312 0.4375,0.433593 0,0.242188 -0.19531,0.4375 -0.4375,0.4375 -0.23828,0 -0.43359,-0.195312 -0.43359,-0.4375 0,-0.238281 0.19531,-0.433593 0.43359,-0.433593 z m -1.74219,0 c 0.24219,0 0.4375,0.195312 0.4375,0.433593 0,0.242188 -0.19531,0.4375 -0.4375,0.4375 -0.23828,0 -0.43359,-0.195312 -0.43359,-0.4375 0,-0.238281 0.19531,-0.433593 0.43359,-0.433593 z m 0.8711,0.871093 c 0.24218,0 0.4375,0.195313 0.4375,0.433594 0,0.242187 -0.19532,0.4375 -0.4375,0.4375 -0.23829,0 -0.4336,-0.195313 -0.4336,-0.4375 0,-0.238281 0.19531,-0.433594 0.4336,-0.433594 z m -0.8711,0.871094 c 0.24219,0 0.4375,0.195313 0.4375,0.433594 0,0.242187 -0.19531,0.4375 -0.4375,0.4375 -0.23828,0 -0.43359,-0.195313 -0.43359,-0.4375 0,-0.238281 0.19531,-0.433594 0.43359,-0.433594 z m 0,0"
       fill="#241f31"
       id="path160" />
    <path
       d="m 78.363281,40.859375 c 3.726562,0 7.44922,1.09375 10.58203,3.105469 1.17188,0.753906 1.88281,2.050781 1.88281,3.441406 v 27.375 c 0,1.390625 -0.70703,2.6875 -1.875,3.4375 -3.13281,2.023437 -6.851559,3.121094 -10.582028,3.128906 -0.0039,0 -0.0078,0 -0.01172,0 C 73.863281,81.34375 70.3125,79.730468 66.84375,76.871094 65.902343,76.09375 65.355469,74.9375 65.355469,73.714844 V 48.488281 c 0,-1.222656 0.546874,-2.378906 1.492187,-3.15625 3.46875,-2.859375 7.019531,-4.46875 11.515625,-4.472656 z m 0,0"
       fill="url(#q)"
       id="path162"
       style="fill:url(#q)" />
    <path
       d="M 74.28125,41.355468 V 80.851562 C 71.585937,80.171875 69.195312,78.8125 66.84375,76.871094 65.902343,76.09375 65.355469,74.9375 65.355469,73.714844 V 48.488281 c 0,-1.222656 0.546874,-2.378906 1.488281,-3.15625 2.351562,-1.9375 4.742187,-3.296875 7.4375,-3.976563 z m 0,0"
       fill="url(#r)"
       id="path164"
       style="fill:url(#r)" />
    <g
       clip-path="url(#t)"
       mask="url(#s)"
       transform="translate(-23.886719,-20.089844)"
       id="g168">
      <path
         d="M 90.236449,7.752855 V 129.25087"
         fill="none"
         stroke="url(#o)"
         stroke-linecap="round"
         stroke-linejoin="bevel"
         stroke-width="5"
         transform="matrix(-0.217853,0,0,0.217853,133.59972,65.865702)"
         id="path166"
         style="stroke:url(#radialGradient3365)" />
    </g>
  </g>
</svg>
