<?xml version="1.0" encoding="UTF-8"?>
<svg height="128px" viewBox="0 0 128 128" width="128px" xmlns="http://www.w3.org/2000/svg" xmlns:xlink="http://www.w3.org/1999/xlink">
    <linearGradient id="a" gradientUnits="userSpaceOnUse" x1="98" x2="108" y1="112" y2="112">
        <stop offset="0" stop-color="#16529c"/>
        <stop offset="1" stop-color="#236ac0"/>
    </linearGradient>
    <linearGradient id="b" gradientTransform="matrix(0 -1 1 0 -157 121)" gradientUnits="userSpaceOnUse" x1="0.999999" x2="0.999999" y1="215" y2="171">
        <stop offset="0" stop-color="#2166bb"/>
        <stop offset="1" stop-color="#89eda9"/>
    </linearGradient>
    <filter id="c" height="100%" width="100%" x="0%" y="0%">
        <feColorMatrix in="SourceGraphic" type="matrix" values="0 0 0 0 1 0 0 0 0 1 0 0 0 0 1 0 0 0 1 0"/>
    </filter>
    <mask id="d">
        <g filter="url(#c)">
            <rect fill-opacity="0.5" height="128" width="128"/>
        </g>
    </mask>
    <clipPath id="e">
        <rect height="152" width="192"/>
    </clipPath>
    <mask id="f">
        <g filter="url(#c)">
            <rect fill-opacity="0.5" height="128" width="128"/>
        </g>
    </mask>
    <clipPath id="g">
        <rect height="152" width="192"/>
    </clipPath>
    <mask id="h">
        <g filter="url(#c)">
            <rect fill-opacity="0.5" height="128" width="128"/>
        </g>
    </mask>
    <clipPath id="i">
        <rect height="152" width="192"/>
    </clipPath>
    <path d="m 64 5 c 33.136719 0 60 26.863281 60 60 s -26.863281 60 -60 60 s -60 -26.863281 -60 -60 s 26.863281 -60 60 -60 z m 0 0" fill="url(#a)"/>
    <path d="m 64 5 c -33.136719 0 -60 26.863281 -60 60 s 26.863281 60 60 60 z m 0 0" fill="url(#b)"/>
    <path d="m 124 63 c 0 33.136719 -26.863281 60 -60 60 s -60 -26.863281 -60 -60 s 26.863281 -60 60 -60 s 60 26.863281 60 60 z m 0 0" fill="#40a1c8"/>
    <path d="m 28.003906 64 c 0.125 13.914062 2.882813 27.367188 7.835938 38.25 c -3.941406 2.015625 -7.28125 4.441406 -9.863282 7.160156 c -13.640624 -11.171875 -21.675781 -27.78125 -21.96875 -45.410156 z m 0 0" fill="#49bbb0"/>
    <path d="m 64 96 v 27 c -4.5 0 -8.988281 -0.507812 -13.375 -1.511719 c -5.800781 -4.058593 -10.894531 -10.691406 -14.78125 -19.238281 c 7.902344 -4.039062 17.867188 -6.25 28.15625 -6.25 z m 0 0" fill="#378bde"/>
    <path d="m 99.996094 64 c -0.125 13.914062 -2.882813 27.367188 -7.839844 38.25 c 3.945312 2.015625 7.28125 4.441406 9.863281 7.160156 c 13.640625 -11.171875 21.675781 -27.78125 21.972657 -45.410156 z m 0 0" fill="#266ec6"/>
    <path d="m 64 64 v 59 c 4.5 0 8.988281 -0.507812 13.375 -1.511719 c 13.472656 -9.433593 22.390625 -32.097656 22.621094 -57.488281 z m 0 0" fill="#378bde"/>
    <path d="m 64 96 v 27 c 4.5 0 8.988281 -0.507812 13.375 -1.511719 c 5.800781 -4.058593 10.894531 -10.691406 14.78125 -19.238281 c -7.902344 -4.039062 -17.867188 -6.25 -28.15625 -6.25 z m 0 0" fill="#266ec6"/>
    <path d="m 92.160156 102.25 c -3.890625 8.546875 -8.984375 15.175781 -14.78125 19.238281 c 9.035156 -2.066406 17.472656 -6.203125 24.644532 -12.078125 c -2.582032 -2.71875 -5.921876 -5.144531 -9.863282 -7.160156 z m 0 0" fill="#1e62b5"/>
    <path d="m 64 3 c -33.136719 0 -60 26.863281 -60 60 c 0 0.332031 0.003906 0.667969 0.007812 1 h 59.992188 z m 0 0" fill="#53d795"/>
    <path d="m 50.625 4.507812 c -9.039062 2.070313 -17.476562 6.203126 -24.648438 12.078126 c 2.582032 2.722656 5.921876 5.144531 9.867188 7.164062 c 3.890625 -8.550781 8.984375 -15.179688 14.78125 -19.242188 z m 0 0" fill="#72e99a"/>
    <path d="m 64 3 c -4.5 0 -8.984375 0.507812 -13.375 1.507812 c -13.664062 9.570313 -22.625 32.734376 -22.625 58.492188 c 0 0.332031 0 0.667969 0.003906 1 h 35.996094 z m 0 0" fill="#49bbb0"/>
    <path d="m 64 3 c -4.5 0 -8.984375 0.507812 -13.375 1.507812 c -5.796875 4.0625 -10.890625 10.691407 -14.78125 19.242188 c 7.90625 4.039062 17.867188 6.25 28.15625 6.25 z m 0 0" fill="#53d795"/>
    <path d="m 64 3 c 33.136719 0 60 26.863281 60 60 c 0 0.332031 -0.003906 0.667969 -0.007812 1 h -59.992188 z m 0 0" fill="#378bde"/>
    <path d="m 77.375 4.507812 c 9.039062 2.070313 17.476562 6.203126 24.648438 12.078126 c -2.582032 2.722656 -5.921876 5.144531 -9.863282 7.160156 c -3.894531 -8.546875 -8.988281 -15.175782 -14.785156 -19.238282 z m 0 0" fill="#40a1c8"/>
    <path d="m 64 3 c 4.5 0 8.988281 0.507812 13.375 1.507812 c 13.664062 9.570313 22.625 32.734376 22.625 58.492188 c 0 0.332031 0 0.667969 -0.003906 1 h -35.996094 z m 0 0" fill="#40a1c8"/>
    <path d="m 64 3 c 4.5 0 8.988281 0.507812 13.375 1.507812 c 5.796875 4.0625 10.890625 10.691407 14.78125 19.238282 c -7.90625 4.042968 -17.867188 6.253906 -28.15625 6.253906 z m 0 0" fill="#49bbb0"/>
    <g clip-path="url(#e)" mask="url(#d)" transform="matrix(1 0 0 1 -8 -16)">
        <path d="m 169.5 24 v 1 h 13 v -1 z m 0 0" fill="#2e3436"/>
    </g>
    <g clip-path="url(#g)" mask="url(#f)" transform="matrix(1 0 0 1 -8 -16)">
        <path d="m 169.5 21 v 1 h 13 v -1 z m 0 0" fill="#2e3436"/>
    </g>
    <g clip-path="url(#i)" mask="url(#h)" transform="matrix(1 0 0 1 -8 -16)">
        <path d="m 169.5 27 v 1 h 13 v -1 z m 0 0" fill="#2e3436"/>
    </g>
</svg>
